# Blender v2.79 (sub 0) OBJ File: ''
# www.blender.org
v 8.148227 4.183643 2.647712
v 8.158846 4.185112 2.756065
v 8.200760 4.240655 2.641790
v 8.211378 4.242125 2.750144
v 8.264445 4.285607 2.634940
v 8.275064 4.287076 2.743293
v 8.336837 4.316770 2.627423
v 8.347456 4.318240 2.735776
v 8.415153 4.332948 2.619528
v 8.425772 4.334417 2.727881
v 8.496383 4.333519 2.611560
v 8.507001 4.334988 2.719913
v 8.577405 4.318460 2.603824
v 8.588023 4.319929 2.712177
v 8.655106 4.288351 2.596617
v 8.665725 4.289820 2.704970
v 8.726500 4.244348 2.590217
v 8.737119 4.245817 2.698570
v 8.788843 4.188143 2.584869
v 8.799462 4.189612 2.693223
v 8.839740 4.121895 2.580780
v 8.850359 4.123364 2.689133
v 8.877234 4.048151 2.578105
v 8.887854 4.049620 2.686458
v 8.899885 3.969744 2.576948
v 8.910504 3.971213 2.685302
v 8.906822 3.889687 2.577354
v 8.917441 3.891156 2.685707
v 8.897779 3.811057 2.579306
v 8.908398 3.812526 2.687660
v 8.873103 3.736876 2.582731
v 8.883722 3.738345 2.691084
v 8.833742 3.669994 2.587495
v 8.844361 3.671463 2.695848
v 8.781210 3.612982 2.593416
v 8.791828 3.614451 2.701769
v 8.717524 3.568031 2.600267
v 8.728143 3.569500 2.708620
v 8.645132 3.536867 2.607784
v 8.655750 3.538337 2.716137
v 8.566816 3.520689 2.615678
v 8.577435 3.522159 2.724032
v 8.485586 3.520119 2.623647
v 8.496205 3.521588 2.732000
v 8.404564 3.535178 2.631383
v 8.415183 3.536647 2.739736
v 8.326863 3.565287 2.638589
v 8.337481 3.566756 2.746943
v 8.255469 3.609290 2.644989
v 8.266088 3.610759 2.753343
v 8.193126 3.665495 2.650337
v 8.203745 3.666964 2.758690
v 8.142229 3.731743 2.654427
v 8.152847 3.733212 2.762780
v 8.104734 3.805487 2.657101
v 8.115354 3.806956 2.765455
v 8.082084 3.883894 2.658258
v 8.092703 3.885364 2.766611
v 8.075147 3.963951 2.657852
v 8.085766 3.965420 2.766206
v 8.084190 4.042581 2.655900
v 8.094809 4.044050 2.764253
v 8.108867 4.116762 2.652476
v 8.119485 4.118231 2.760829
vn -0.7307 0.6798 0.0624
vn -0.5728 0.8184 0.0450
vn -0.3930 0.9192 0.0261
vn -0.2017 0.9794 0.0065
vn -0.0083 0.9999 -0.0127
vn 0.1798 0.9832 -0.0309
vn 0.3571 0.9329 -0.0476
vn 0.5196 0.8521 -0.0625
vn 0.6641 0.7438 -0.0752
vn 0.7875 0.6103 -0.0855
vn 0.8862 0.4539 -0.0930
vn 0.9558 0.2775 -0.0974
vn 0.9915 0.0854 -0.0983
vn 0.9887 -0.1161 -0.0953
vn 0.9440 -0.3181 -0.0882
vn 0.8569 -0.5098 -0.0771
vn 0.7307 -0.6798 -0.0624
vn 0.5728 -0.8184 -0.0450
vn 0.3930 -0.9192 -0.0261
vn 0.2017 -0.9794 -0.0065
vn 0.0083 -0.9999 0.0127
vn -0.1798 -0.9832 0.0309
vn -0.3571 -0.9329 0.0476
vn -0.5196 -0.8521 0.0625
vn -0.6641 -0.7438 0.0752
vn -0.7875 -0.6103 0.0855
vn -0.8862 -0.4539 0.0930
vn -0.9558 -0.2775 0.0974
vn -0.9915 -0.0854 0.0983
vn -0.9887 0.1161 0.0953
vn 0.0975 0.0135 0.9951
vn -0.9440 0.3181 0.0882
vn -0.8569 0.5098 0.0771
vn -0.0975 -0.0135 -0.9951
vn -0.3930 0.9192 0.0260
vn 0.1798 0.9832 -0.0310
vn 0.9558 0.2776 -0.0974
vn 0.9439 -0.3181 -0.0882
vn 0.3930 -0.9192 -0.0260
vn 0.0083 -0.9999 0.0128
vn -0.1798 -0.9832 0.0310
vn -0.9558 -0.2776 0.0974
vn -0.9887 0.1160 0.0953
vn 0.0976 0.0135 0.9951
vn 0.0975 0.0134 0.9951
vn -0.0976 -0.0135 -0.9951
s off
f 2//1 3//1 1//1
f 4//2 5//2 3//2
f 6//3 7//3 5//3
f 8//4 9//4 7//4
f 10//5 11//5 9//5
f 12//6 13//6 11//6
f 14//7 15//7 13//7
f 16//8 17//8 15//8
f 18//9 19//9 17//9
f 20//10 21//10 19//10
f 22//11 23//11 21//11
f 24//12 25//12 23//12
f 26//13 27//13 25//13
f 28//14 29//14 27//14
f 30//15 31//15 29//15
f 32//16 33//16 31//16
f 34//17 35//17 33//17
f 36//18 37//18 35//18
f 38//19 39//19 37//19
f 40//20 41//20 39//20
f 42//21 43//21 41//21
f 44//22 45//22 43//22
f 46//23 47//23 45//23
f 48//24 49//24 47//24
f 50//25 51//25 49//25
f 52//26 53//26 51//26
f 54//27 55//27 53//27
f 56//28 57//28 55//28
f 58//29 59//29 57//29
f 60//30 61//30 59//30
f 54//31 38//31 22//31
f 62//32 63//32 61//32
f 64//33 1//33 63//33
f 15//34 31//34 47//34
f 2//1 4//1 3//1
f 4//2 6//2 5//2
f 6//35 8//35 7//35
f 8//4 10//4 9//4
f 10//5 12//5 11//5
f 12//36 14//36 13//36
f 14//7 16//7 15//7
f 16//8 18//8 17//8
f 18//9 20//9 19//9
f 20//10 22//10 21//10
f 22//11 24//11 23//11
f 24//37 26//37 25//37
f 26//13 28//13 27//13
f 28//14 30//14 29//14
f 30//38 32//38 31//38
f 32//16 34//16 33//16
f 34//17 36//17 35//17
f 36//18 38//18 37//18
f 38//39 40//39 39//39
f 40//20 42//20 41//20
f 42//40 44//40 43//40
f 44//41 46//41 45//41
f 46//23 48//23 47//23
f 48//24 50//24 49//24
f 50//25 52//25 51//25
f 52//26 54//26 53//26
f 54//27 56//27 55//27
f 56//42 58//42 57//42
f 58//29 60//29 59//29
f 60//43 62//43 61//43
f 6//31 4//31 2//31
f 2//31 64//31 6//31
f 64//31 62//31 6//31
f 62//31 60//31 58//31
f 58//44 56//44 54//44
f 54//31 52//31 50//31
f 50//31 48//31 54//31
f 48//31 46//31 54//31
f 46//31 44//31 38//31
f 44//31 42//31 38//31
f 42//45 40//45 38//45
f 38//31 36//31 34//31
f 34//31 32//31 30//31
f 30//31 28//31 26//31
f 26//31 24//31 22//31
f 22//31 20//31 18//31
f 18//31 16//31 22//31
f 16//31 14//31 22//31
f 14//31 12//31 10//31
f 10//31 8//31 6//31
f 62//31 58//31 6//31
f 58//31 54//31 6//31
f 38//31 34//31 22//31
f 34//31 30//31 22//31
f 30//31 26//31 22//31
f 14//31 10//31 22//31
f 10//31 6//31 22//31
f 54//31 46//31 38//31
f 6//31 54//31 22//31
f 62//32 64//32 63//32
f 64//33 2//33 1//33
f 63//34 1//34 3//34
f 3//34 5//34 7//34
f 7//34 9//34 11//34
f 11//34 13//34 7//34
f 13//34 15//34 7//34
f 15//34 17//34 19//34
f 19//34 21//34 15//34
f 21//34 23//34 15//34
f 23//34 25//34 31//34
f 25//34 27//34 31//34
f 27//46 29//46 31//46
f 31//34 33//34 35//34
f 35//34 37//34 39//34
f 39//34 41//34 43//34
f 43//34 45//34 47//34
f 47//34 49//34 51//34
f 51//34 53//34 55//34
f 55//34 57//34 63//34
f 57//34 59//34 63//34
f 59//34 61//34 63//34
f 63//34 3//34 7//34
f 31//34 35//34 47//34
f 35//34 39//34 47//34
f 39//34 43//34 47//34
f 47//34 51//34 63//34
f 51//34 55//34 63//34
f 63//34 7//34 15//34
f 15//34 23//34 31//34
f 63//34 15//34 47//34
